<svg xmlns="http://www.w3.org/2000/svg" version="1.1" xmlns:xlink="http://www.w3.org/1999/xlink" xmlns:svgjs="http://svgjs.dev/svgjs" width="1000" height="242" viewBox="0 0 1000 242"><g transform="matrix(1,0,0,1,-0.606060450866778,0.5573953075700047)"><svg viewBox="0 0 396 96" data-background-color="#ffffff" preserveAspectRatio="xMidYMid meet" height="242" width="1000" xmlns="http://www.w3.org/2000/svg" xmlns:xlink="http://www.w3.org/1999/xlink"><g id="tight-bounds" transform="matrix(1,0,0,1,0.240000061456783,-0.22111549391206609)"><svg viewBox="0 0 395.52 96.44223098782412" height="96.44223098782412" width="395.52"><g><svg viewBox="0 0 543.002063058251 132.40374795795125" height="96.44223098782412" width="395.52"><g transform="matrix(1,0,0,1,0,34.26657538805637)"><svg viewBox="0 0 395.52 63.87059718183851" height="63.87059718183851" width="395.52"><g><svg viewBox="0 0 395.52 63.87059718183851" height="63.87059718183851" width="395.52"><g><svg viewBox="0 0 395.52 63.87059718183851" height="63.87059718183851" width="395.52"><g transform="matrix(1,0,0,1,0,0)"><svg width="395.52" viewBox="3.4000000953674316 -35.5 223.52999877929688 36.099998474121094" height="63.87059718183851" data-palette-color="#000000"><path d="M3.4 0L3.4-34.9 18.9-34.9Q23.1-34.9 25.13-32.45 27.15-30 27.15-25.95L27.15-25.95Q27.15-23.75 26.63-22.33 26.1-20.9 25.28-20.08 24.45-19.25 23.4-18.88 22.35-18.5 21.25-18.45L21.25-18.45 21.25-17.65Q22.45-17.65 23.73-17.25 25-16.85 26.05-15.93 27.1-15 27.75-13.53 28.4-12.05 28.4-9.95L28.4-9.95Q28.4-7.9 27.85-6.08 27.3-4.25 26.25-2.9 25.2-1.55 23.7-0.78 22.2 0 20.3 0L20.3 0 3.4 0ZM10.55-14.65L10.55-6.05 18.3-6.05Q19.5-6.05 20.23-6.75 20.95-7.45 20.95-9.1L20.95-9.1 20.95-11.6Q20.95-13.25 20.23-13.95 19.5-14.65 18.3-14.65L18.3-14.65 10.55-14.65ZM10.55-28.85L10.55-20.55 17.15-20.55Q18.4-20.55 19.1-21.25 19.8-21.95 19.8-23.55L19.8-23.55 19.8-25.85Q19.8-27.45 19.1-28.15 18.4-28.85 17.15-28.85L17.15-28.85 10.55-28.85ZM46.15 0.6L46.15 0.6Q43 0.6 40.45-0.38 37.9-1.35 36.1-3.53 34.3-5.7 33.3-9.13 32.3-12.55 32.3-17.45L32.3-17.45Q32.3-22.35 33.3-25.78 34.3-29.2 36.1-31.38 37.9-33.55 40.45-34.52 43-35.5 46.15-35.5L46.15-35.5Q49.3-35.5 51.85-34.52 54.4-33.55 56.2-31.38 58-29.2 59-25.78 60-22.35 60-17.45L60-17.45Q60-12.55 59-9.13 58-5.7 56.2-3.53 54.4-1.35 51.85-0.38 49.3 0.6 46.15 0.6ZM46.15-5.7L46.15-5.7Q49.15-5.7 50.77-7.5 52.4-9.3 52.4-12.9L52.4-12.9 52.4-22Q52.4-25.6 50.77-27.4 49.15-29.2 46.15-29.2L46.15-29.2Q43.15-29.2 41.52-27.4 39.9-25.6 39.9-22L39.9-22 39.9-12.9Q39.9-9.3 41.52-7.5 43.15-5.7 46.15-5.7ZM78.25 0.6L78.25 0.6Q75.1 0.6 72.55-0.38 70-1.35 68.2-3.53 66.4-5.7 65.4-9.13 64.4-12.55 64.4-17.45L64.4-17.45Q64.4-22.35 65.4-25.78 66.4-29.2 68.2-31.38 70-33.55 72.55-34.52 75.1-35.5 78.25-35.5L78.25-35.5Q81.4-35.5 83.95-34.52 86.5-33.55 88.3-31.38 90.1-29.2 91.1-25.78 92.1-22.35 92.1-17.45L92.1-17.45Q92.1-12.55 91.1-9.13 90.1-5.7 88.3-3.53 86.5-1.35 83.95-0.38 81.4 0.6 78.25 0.6ZM78.25-5.7L78.25-5.7Q81.25-5.7 82.87-7.5 84.5-9.3 84.5-12.9L84.5-12.9 84.5-22Q84.5-25.6 82.87-27.4 81.25-29.2 78.25-29.2L78.25-29.2Q75.25-29.2 73.62-27.4 72-25.6 72-22L72-22 72-12.9Q72-9.3 73.62-7.5 75.25-5.7 78.25-5.7ZM116.99 0L108.89-15.45 104.84-9.95 104.84 0 97.69 0 97.69-34.9 104.84-34.9 104.84-23.6 104.54-18.05 105.34-18.05 108.79-23.6 116.39-34.9 124.49-34.9 113.94-20.35 125.39 0 116.99 0ZM139.79 0L139.79-34.9 155.29-34.9Q159.49-34.9 161.51-32.45 163.54-30 163.54-25.95L163.54-25.95Q163.54-23.75 163.01-22.33 162.49-20.9 161.66-20.08 160.84-19.25 159.79-18.88 158.74-18.5 157.64-18.45L157.64-18.45 157.64-17.65Q158.84-17.65 160.11-17.25 161.39-16.85 162.44-15.93 163.49-15 164.14-13.53 164.79-12.05 164.79-9.95L164.79-9.95Q164.79-7.9 164.24-6.08 163.69-4.25 162.64-2.9 161.59-1.55 160.09-0.78 158.59 0 156.69 0L156.69 0 139.79 0ZM146.94-14.65L146.94-6.05 154.69-6.05Q155.89-6.05 156.61-6.75 157.34-7.45 157.34-9.1L157.34-9.1 157.34-11.6Q157.34-13.25 156.61-13.95 155.89-14.65 154.69-14.65L154.69-14.65 146.94-14.65ZM146.94-28.85L146.94-20.55 153.54-20.55Q154.79-20.55 155.49-21.25 156.19-21.95 156.19-23.55L156.19-23.55 156.19-25.85Q156.19-27.45 155.49-28.15 154.79-28.85 153.54-28.85L153.54-28.85 146.94-28.85ZM182.54 0.6L182.54 0.6Q179.39 0.6 176.84-0.38 174.29-1.35 172.49-3.53 170.69-5.7 169.69-9.13 168.69-12.55 168.69-17.45L168.69-17.45Q168.69-22.35 169.69-25.78 170.69-29.2 172.49-31.38 174.29-33.55 176.84-34.52 179.39-35.5 182.54-35.5L182.54-35.5Q185.69-35.5 188.24-34.52 190.79-33.55 192.59-31.38 194.39-29.2 195.39-25.78 196.39-22.35 196.39-17.45L196.39-17.45Q196.39-12.55 195.39-9.13 194.39-5.7 192.59-3.53 190.79-1.35 188.24-0.38 185.69 0.6 182.54 0.6ZM182.54-5.7L182.54-5.7Q185.54-5.7 187.16-7.5 188.79-9.3 188.79-12.9L188.79-12.9 188.79-22Q188.79-25.6 187.16-27.4 185.54-29.2 182.54-29.2L182.54-29.2Q179.54-29.2 177.91-27.4 176.29-25.6 176.29-22L176.29-22 176.29-12.9Q176.29-9.3 177.91-7.5 179.54-5.7 182.54-5.7ZM216.88-17.9L226.93 0 218.68 0 212.33-12.5 211.63-12.5 205.48 0 197.83 0 207.68-17.9 198.38-34.9 206.63-34.9 212.23-23.45 213.03-23.45 218.68-34.9 226.33-34.9 216.88-17.9Z" opacity="1" transform="matrix(1,0,0,1,0,0)" fill="#000000" class="undefined-text-0" data-fill-palette-color="primary" id="text-0"></path></svg></g></svg></g></svg></g></svg></g><g transform="matrix(1,0,0,1,410.5983151002997,0)"><svg viewBox="0 0 132.40374795795125 132.40374795795125" height="132.40374795795125" width="132.40374795795125"><g data-palette-color="#000000"><rect width="36.19035777517335" height="132.40374795795125" fill="#000000" stroke="transparent" data-fill-palette-color="accent" x="0" fill-opacity="1"></rect><rect width="36.19035777517335" height="132.40374795795125" fill="#000000" stroke="transparent" data-fill-palette-color="accent" x="44.13458265265042" fill-opacity="0.75"></rect><rect width="36.19035777517335" height="132.40374795795125" fill="#000000" stroke="transparent" data-fill-palette-color="accent" x="88.26916530530085" fill-opacity="0.5"></rect></g></svg></g></svg></g><defs></defs></svg><rect width="395.52" height="96.44223098782412" fill="none" stroke="none" visibility="hidden"></rect></g></svg></g></svg>